<svg xmlns="http://www.w3.org/2000/svg" width="320" height="320" viewBox="0 0 320 320" shape-rendering="crispEdges"><rect width="50" height="10" x="90" y="40" fill="gray"/><rect width="50" height="10" x="180" y="40" fill="gray"/><rect width="90" height="10" x="70" y="50" fill="gray"/><rect width="80" height="10" x="170" y="50" fill="gray"/><rect width="60" height="10" x="60" y="60" fill="gray"/><rect width="20" height="10" x="120" y="60" fill="#ffffff"/><rect width="60" height="10" x="140" y="60" fill="gray"/><rect width="20" height="10" x="200" y="60" fill="#ffffff"/><rect width="40" height="10" x="220" y="60" fill="gray"/><rect width="90" height="10" x="50" y="70" fill="gray"/><rect width="10" height="10" x="140" y="70" fill="#ffffff"/><rect width="50" height="10" x="150" y="70" fill="gray"/><rect width="20" height="10" x="200" y="70" fill="#ffffff"/><rect width="10" height="10" x="220" y="70" fill="gray"/><rect width="10" height="10" x="230" y="70" fill="#ffffff"/><rect width="30" height="10" x="240" y="70" fill="gray"/><rect width="190" height="10" x="50" y="80" fill="gray"/><rect width="10" height="10" x="240" y="80" fill="#ffffff"/><rect width="20" height="10" x="250" y="80" fill="gray"/><rect width="200" height="10" x="40" y="90" fill="gray"/><rect width="10" height="10" x="240" y="90" fill="#ffffff"/><rect width="30" height="10" x="250" y="90" fill="gray"/><rect width="240" height="10" x="40" y="100" fill="gray"/><rect width="240" height="10" x="40" y="110" fill="gray"/><rect width="240" height="10" x="40" y="120" fill="gray"/><rect width="220" height="10" x="50" y="130" fill="gray"/><rect width="220" height="10" x="50" y="140" fill="gray"/><rect width="200" height="10" x="60" y="150" fill="gray"/><rect width="200" height="10" x="60" y="160" fill="gray"/><rect width="180" height="10" x="70" y="170" fill="gray"/><rect width="70" height="10" x="80" y="180" fill="gray"/><rect width="20" height="10" x="150" y="180" fill="#ffffff"/><rect width="10" height="10" x="170" y="180" fill="#000000"/><rect width="60" height="10" x="180" y="180" fill="gray"/><rect width="140" height="10" x="90" y="190" fill="gray"/><rect width="120" height="10" x="100" y="200" fill="gray"/><rect width="100" height="10" x="110" y="210" fill="gray"/><rect width="60" height="10" x="130" y="220" fill="gray"/><rect width="20" height="10" x="150" y="230" fill="gray"/><rect width="60" height="10" x="100" y="110" fill="gray"/><rect width="60" height="10" x="170" y="110" fill="gray"/><rect width="10" height="10" x="100" y="120" fill="gray"/><rect width="20" height="10" x="110" y="120" fill="#ffffff"/><rect width="20" height="10" x="130" y="120" fill="#000000"/><rect width="10" height="10" x="150" y="120" fill="gray"/><rect width="10" height="10" x="170" y="120" fill="gray"/><rect width="20" height="10" x="180" y="120" fill="#ffffff"/><rect width="20" height="10" x="200" y="120" fill="#000000"/><rect width="10" height="10" x="220" y="120" fill="gray"/><rect width="40" height="10" x="70" y="130" fill="gray"/><rect width="20" height="10" x="110" y="130" fill="#ffffff"/><rect width="20" height="10" x="130" y="130" fill="#000000"/><rect width="30" height="10" x="150" y="130" fill="gray"/><rect width="20" height="10" x="180" y="130" fill="#ffffff"/><rect width="20" height="10" x="200" y="130" fill="#000000"/><rect width="10" height="10" x="220" y="130" fill="gray"/><rect width="10" height="10" x="70" y="140" fill="gray"/><rect width="10" height="10" x="100" y="140" fill="gray"/><rect width="20" height="10" x="110" y="140" fill="#ffffff"/><rect width="20" height="10" x="130" y="140" fill="#000000"/><rect width="10" height="10" x="150" y="140" fill="gray"/><rect width="10" height="10" x="170" y="140" fill="gray"/><rect width="20" height="10" x="180" y="140" fill="#ffffff"/><rect width="20" height="10" x="200" y="140" fill="#000000"/><rect width="10" height="10" x="220" y="140" fill="gray"/><rect width="10" height="10" x="70" y="150" fill="gray"/><rect width="10" height="10" x="100" y="150" fill="gray"/><rect width="20" height="10" x="110" y="150" fill="#ffffff"/><rect width="20" height="10" x="130" y="150" fill="#000000"/><rect width="10" height="10" x="150" y="150" fill="gray"/><rect width="10" height="10" x="170" y="150" fill="gray"/><rect width="20" height="10" x="180" y="150" fill="#ffffff"/><rect width="20" height="10" x="200" y="150" fill="#000000"/><rect width="10" height="10" x="220" y="150" fill="gray"/><rect width="60" height="10" x="100" y="160" fill="gray"/><rect width="60" height="10" x="170" y="160" fill="gray"/></svg>